<?xml version="1.0" standalone="no"?>
<!DOCTYPE svg PUBLIC "-//W3C//DTD SVG 20010904//EN"
 "http://www.w3.org/TR/2001/REC-SVG-20010904/DTD/svg10.dtd">
<svg version="1.0" xmlns="http://www.w3.org/2000/svg"
 width="1323.000000pt" height="1037.000000pt" viewBox="0 0 1323.000000 1037.000000"
 preserveAspectRatio="xMidYMid meet">
<metadata>
Created by potrace 1.16, written by Peter Selinger 2001-2019
</metadata>
<g transform="translate(0.000000,1037.000000) scale(0.100000,-0.100000)"
fill="#000000" stroke="none">
<path d="M7590 8880 c-8 -5 -32 -7 -53 -3 -28 4 -42 1 -58 -13 -19 -17 -20
-17 -13 0 6 16 3 17 -17 11 -52 -15 -134 -61 -152 -87 -11 -14 -22 -49 -25
-77 l-5 -51 -141 0 c-190 -1 -447 -17 -460 -30 -13 -13 -29 -13 -21 0 6 10
-48 3 -75 -10 -8 -4 -27 -6 -42 -4 -15 1 -30 -2 -33 -7 -4 -5 -13 -5 -24 1
-10 5 -21 6 -25 3 -4 -4 -32 -8 -64 -9 -143 -5 -400 -47 -662 -110 -761 -181
-1328 -552 -1608 -1051 -130 -231 -180 -409 -226 -813 -49 -421 -86 -1232 -86
-1901 0 -153 -3 -209 -12 -216 -7 -5 -105 -33 -218 -62 -1153 -297 -1654 -507
-1845 -775 -60 -84 -79 -147 -73 -244 6 -103 45 -178 139 -266 183 -173 508
-295 1324 -499 681 -170 1199 -252 1955 -309 219 -16 991 -16 1225 0 241 17
583 49 725 67 318 42 644 89 750 109 14 3 91 16 171 30 81 14 180 33 220 41
41 9 90 18 109 21 19 3 105 21 190 41 85 19 174 39 197 44 139 28 488 129 671
195 148 53 494 220 602 291 97 64 156 126 179 187 l18 49 74 19 c173 45 550
178 706 249 37 17 84 38 103 47 68 30 246 142 314 196 89 72 159 155 197 233
45 94 53 211 53 758 0 480 -7 639 -45 980 -82 740 -217 1207 -450 1556 -70
105 -213 266 -300 337 -153 126 -393 270 -579 347 -36 15 -85 36 -109 47 -124
56 -537 176 -803 233 -305 65 -721 131 -1038 165 -107 11 -234 26 -282 32
l-87 11 2 46 c2 63 -17 105 -64 136 -53 34 -92 49 -87 33 3 -7 10 -14 16 -14
7 -1 17 -2 24 -3 6 0 9 -4 5 -7 -3 -3 -20 -3 -37 1 -21 5 -30 12 -28 23 2 14
-5 17 -40 17 -23 0 -42 3 -42 8 0 10 -22 9 -40 -3z m-642 -317 c-10 -2 -18 -9
-18 -15 0 -6 10 -8 23 -4 12 3 28 6 35 6 7 0 10 5 7 10 -4 6 22 10 72 9 72 0
75 -1 46 -12 -46 -17 -45 -32 2 -30 22 1 31 -1 20 -4 -11 -3 -25 -9 -30 -14
-6 -4 -28 -9 -49 -11 -21 -1 -41 -9 -46 -18 -6 -9 -10 -10 -10 -2 0 14 -40 17
-40 2 0 -16 -30 -12 -36 5 -4 8 -10 15 -16 15 -5 0 -6 -5 -2 -11 4 -8 0 -9
-15 -4 -27 8 -28 -11 -1 -25 29 -16 25 -30 -5 -17 -14 7 -25 15 -25 18 0 9
-66 -5 -119 -25 -74 -27 -206 -97 -203 -108 1 -5 -6 -7 -18 -3 -15 5 -29 -1
-48 -20 -18 -18 -28 -23 -31 -14 -2 7 1 15 8 17 22 7 11 19 -14 14 -20 -3 -23
-8 -15 -22 8 -14 4 -21 -15 -34 -13 -9 -29 -16 -35 -16 -14 0 -13 23 3 39 10
11 9 14 -1 18 -24 9 8 33 36 27 19 -4 34 1 52 18 13 12 29 23 35 24 5 0 15 2
20 4 6 1 15 3 20 4 12 2 39 13 80 31 17 8 45 19 63 25 17 7 32 19 32 27 0 9 6
12 18 9 18 -6 50 9 40 19 -9 9 -78 -6 -78 -17 0 -5 -4 -6 -10 -3 -5 3 -19 1
-30 -5 -25 -13 -83 -3 -77 13 6 20 37 33 46 19 6 -10 10 -10 21 3 9 11 31 15
76 15 34 0 66 5 69 10 3 6 29 10 56 10 35 0 51 4 55 15 4 9 18 15 38 14 17 -1
23 -3 14 -6z m-1497 -1947 c63 -20 123 -40 134 -45 90 -39 145 -67 172 -87 17
-13 35 -24 39 -24 10 0 102 -71 144 -112 43 -41 86 -91 125 -143 17 -22 32
-42 35 -45 12 -12 50 -70 50 -77 0 -4 9 -19 20 -33 11 -14 20 -33 20 -42 0
-10 3 -18 8 -18 9 0 30 -47 48 -107 8 -25 18 -51 23 -57 9 -11 26 -82 36 -146
3 -19 8 -43 11 -52 3 -11 0 -18 -7 -18 -7 0 -5 -6 6 -13 13 -10 16 -21 11 -40
-4 -16 -1 -27 7 -30 9 -4 8 -8 -3 -16 -10 -7 -11 -11 -2 -11 9 0 10 -10 6 -32
-3 -18 -6 -53 -6 -78 0 -25 -2 -49 -5 -54 -4 -5 -6 -46 -6 -90 0 -45 -3 -83
-8 -86 -4 -3 -11 -26 -14 -50 -6 -51 -23 -109 -37 -127 -5 -6 -8 -17 -8 -25 3
-20 -11 -58 -21 -58 -5 0 -9 -6 -9 -14 0 -20 -48 -109 -69 -126 -10 -9 -16
-20 -14 -25 2 -6 -8 -23 -22 -40 -13 -16 -32 -40 -42 -53 -35 -45 -109 -119
-158 -157 -27 -22 -61 -50 -75 -63 -28 -28 -198 -112 -229 -115 -12 -1 -21 -4
-21 -8 0 -4 -15 -10 -32 -14 -18 -4 -51 -11 -73 -17 -61 -15 -273 -19 -332 -7
-29 6 -56 10 -60 11 -5 0 -12 3 -18 8 -5 4 -39 18 -74 30 -36 12 -76 30 -89
41 -14 10 -30 19 -38 19 -7 0 -14 4 -16 8 -1 4 -37 35 -78 67 -94 75 -102 83
-120 119 -8 16 -23 31 -32 34 -10 2 -18 11 -18 18 0 8 -6 17 -14 20 -8 3 -20
20 -27 37 -7 18 -26 46 -41 62 -15 17 -28 38 -28 47 0 9 -5 20 -10 23 -19 12
-93 214 -92 249 1 11 -3 27 -9 37 -10 20 -17 55 -25 134 -8 73 9 37 35 -75 12
-52 26 -102 30 -110 5 -9 12 -31 16 -49 4 -18 20 -64 35 -101 25 -60 49 -101
127 -215 34 -51 143 -158 198 -195 28 -18 52 -36 55 -39 3 -3 37 -23 75 -43
71 -37 187 -71 280 -83 58 -7 188 -7 225 2 70 15 200 57 200 65 0 4 7 8 16 8
18 0 77 31 82 43 2 4 10 7 19 7 29 0 243 182 243 207 0 6 11 18 25 27 14 9 25
22 25 30 0 7 9 21 20 31 12 11 27 33 35 50 8 16 26 42 40 57 14 15 25 30 25
33 0 3 7 22 16 43 25 56 25 64 -1 44 -14 -9 -23 -24 -22 -32 1 -8 -5 -15 -13
-15 -8 0 -39 -24 -67 -53 -42 -43 -57 -52 -74 -47 -17 6 -21 4 -16 -8 4 -11
-9 -21 -46 -37 -29 -13 -56 -23 -62 -24 -5 -1 -30 -8 -55 -18 -52 -18 -114
-36 -150 -42 -14 -3 -50 -10 -80 -16 -109 -21 -139 -24 -230 -16 -207 17 -406
63 -502 116 -10 6 -23 10 -29 10 -7 0 -45 20 -87 45 -41 25 -78 45 -82 45 -13
0 -178 168 -194 198 -24 43 -66 130 -66 136 0 2 -5 17 -12 33 -6 15 -12 33
-13 38 0 6 -7 9 -14 7 -10 -2 -12 5 -8 28 4 19 2 30 -4 30 -6 0 -9 9 -6 20 3
11 2 20 -2 20 -11 0 -4 91 8 103 13 13 18 -11 24 -123 1 -19 7 -38 12 -42 6
-4 10 -11 11 -15 3 -32 18 -83 24 -83 4 0 19 -27 34 -60 15 -33 31 -60 37 -60
5 0 9 -9 9 -20 0 -11 7 -20 15 -20 8 0 15 -4 15 -9 0 -14 45 -61 58 -61 5 0
12 -6 15 -13 10 -27 240 -167 274 -167 5 0 25 -9 46 -20 20 -11 54 -23 75 -26
20 -3 40 -8 43 -10 4 -2 24 -6 45 -10 22 -3 58 -10 81 -15 22 -5 87 -11 144
-14 56 -3 105 -7 108 -10 4 -2 49 6 101 17 52 11 104 22 115 23 11 2 20 4 20
5 0 1 7 3 15 5 56 11 182 51 220 70 88 44 108 56 120 70 7 8 16 15 21 15 17 0
127 108 145 143 8 15 20 27 28 27 13 0 43 76 34 86 -3 3 0 25 8 50 9 32 10 44
2 44 -9 0 -9 3 0 12 17 17 15 45 -3 52 -9 3 -50 8 -93 11 -42 4 -88 10 -102
15 -14 5 -54 11 -90 14 -101 8 -121 12 -137 29 -36 35 3 39 162 15 39 -5 104
-14 145 -19 41 -5 90 -12 108 -15 l33 -6 -5 83 c-5 86 -12 119 -26 119 -4 0
-17 26 -29 59 -11 32 -37 79 -56 104 -19 25 -35 50 -35 56 0 5 -4 11 -9 13
-10 4 -105 83 -139 116 -12 12 -24 22 -26 22 -2 0 -44 27 -94 60 -49 32 -114
71 -144 85 -59 29 -141 46 -122 26 6 -7 9 -23 6 -37 -3 -19 -10 -24 -34 -24
-30 0 -30 1 -25 37 4 20 12 40 18 44 8 4 -5 12 -32 19 -24 6 -58 16 -75 21
-41 12 -48 11 -35 -5 19 -23 -3 -66 -35 -66 -25 0 -26 2 -20 36 4 19 9 41 12
48 3 9 -14 17 -56 26 -33 7 -63 10 -66 7 -3 -3 -6 -19 -6 -37 -1 -23 -7 -34
-22 -40 -12 -4 -24 -6 -28 -3 -9 5 1 64 14 80 7 8 -3 13 -35 18 -69 11 -80 5
-90 -43 -9 -45 -40 -62 -37 -19 5 61 3 64 -47 60 -26 -2 -48 -5 -50 -7 -2 -1
-4 -23 -6 -47 -1 -31 -6 -44 -17 -44 -11 0 -14 10 -12 43 2 38 0 42 -20 42
-89 -1 -280 -100 -372 -194 -58 -59 -135 -191 -141 -243 -3 -26 -10 -66 -15
-88 -14 -63 6 -74 175 -90 39 -4 73 -9 78 -12 10 -6 9 -41 -2 -47 -5 -3 -62 1
-127 9 -91 11 -120 12 -126 3 -4 -7 -10 -9 -14 -5 -10 9 -14 158 -6 172 4 6 8
33 8 60 1 28 7 68 13 90 5 22 11 59 12 83 2 23 7 42 11 42 4 0 8 11 8 24 0 13
7 29 15 36 8 7 15 25 15 41 0 16 4 29 9 29 8 0 23 29 26 50 3 23 68 129 114
186 113 143 244 229 413 274 60 16 97 19 209 16 122 -4 147 -8 250 -40z m-696
-486 c9 -15 73 -40 101 -40 13 0 28 -8 33 -17 7 -11 11 -13 11 -5 0 8 7 11 18
8 28 -8 102 -18 172 -22 118 -6 177 -13 203 -23 18 -7 28 -7 33 0 4 6 10 7 17
0 15 -12 69 -17 83 -8 6 4 23 -4 38 -18 14 -13 28 -20 31 -16 2 5 19 6 37 4
18 -3 49 -6 68 -7 19 0 37 -4 40 -7 5 -6 89 -13 117 -10 6 0 19 9 28 18 13 12
21 14 33 7 23 -15 28 -36 6 -27 -10 4 -15 2 -11 -4 3 -5 -3 -17 -14 -27 -16
-13 -34 -16 -92 -12 -40 2 -85 7 -102 10 -31 6 -76 13 -135 22 -19 2 -36 9
-38 13 -2 5 -11 7 -22 4 -10 -3 -44 3 -75 12 -58 16 -131 22 -142 11 -3 -3
-12 -1 -20 6 -8 6 -53 13 -101 15 -105 3 -112 4 -112 14 0 4 -18 5 -40 3 -22
-2 -40 0 -40 5 0 4 -11 6 -25 3 -16 -3 -25 0 -25 9 0 7 -3 10 -6 6 -8 -8 -64
13 -64 25 0 5 -4 7 -8 4 -16 -10 -34 11 -27 33 7 23 20 27 30 11z m392 -266
c12 -3 19 -12 17 -19 -10 -24 25 -24 61 1 37 24 61 30 81 16 11 -7 46 -100 51
-137 9 -59 2 -114 -16 -120 -9 -3 -24 -23 -33 -44 -10 -22 -28 -49 -40 -62
l-23 -21 65 7 c106 12 160 7 213 -23 49 -26 97 -82 97 -112 0 -22 -30 -62 -43
-57 -7 2 -18 -2 -25 -9 -11 -11 -10 -18 4 -39 18 -27 13 -85 -9 -103 -6 -6
-32 -9 -57 -8 -25 2 -53 -1 -63 -6 -12 -6 -22 -4 -33 7 -8 8 -21 15 -27 15
-19 1 -59 39 -52 50 3 5 0 10 -8 10 -18 0 -67 59 -67 81 0 22 -21 39 -57 45
-27 5 -27 5 -7 -10 16 -12 23 -30 27 -78 4 -35 8 -74 10 -88 4 -25 44 -101 81
-154 17 -24 17 -29 5 -41 -13 -13 -18 -12 -39 9 -26 25 -54 57 -57 66 -11 33
-16 49 -24 68 -5 13 -9 37 -9 54 0 45 -22 148 -32 148 -4 0 -8 -4 -8 -9 0 -15
-82 -89 -117 -106 -29 -14 -38 -14 -88 0 -31 9 -59 25 -65 35 -15 28 -12 83 6
108 15 21 15 25 0 41 -13 14 -13 20 -3 31 10 10 9 12 -7 6 -41 -14 -65 84 -28
116 24 21 73 36 103 32 29 -4 101 -29 141 -50 36 -19 47 -11 28 19 -45 71 -81
200 -62 219 6 6 8 16 6 23 -3 6 2 18 11 25 8 7 15 19 15 26 0 8 4 14 10 14 5
0 7 7 4 15 -7 16 21 20 63 9z m5501 -886 c18 -5 41 -6 52 -3 11 3 27 2 37 -4
10 -5 43 -10 73 -12 64 -3 100 -14 117 -35 9 -13 22 -14 85 -5 93 13 106 5
152 -91 37 -77 36 -91 -4 -148 -11 -16 -20 -31 -20 -34 0 -9 -57 -90 -84 -118
-29 -32 -51 -36 -65 -11 -8 15 -14 13 -53 -22 -23 -21 -47 -44 -53 -51 -5 -6
-41 -35 -79 -63 -37 -28 -75 -58 -83 -67 -48 -47 -113 -47 -113 0 0 14 -4 27
-8 30 -5 3 -9 21 -10 41 -1 20 -9 67 -17 103 -39 165 -44 191 -50 252 -3 36
-11 86 -17 112 -14 65 3 114 45 133 18 7 39 11 47 8 8 -3 30 -9 48 -15z
m-6867 -1510 c-13 -10 -18 -18 -11 -18 6 0 10 -6 7 -12 -2 -7 5 -18 17 -25
l21 -12 -22 -1 c-27 0 -27 -3 -10 -31 10 -18 9 -23 -7 -33 -11 -6 -28 -19 -39
-30 -18 -17 -18 -20 -3 -28 9 -5 14 -13 11 -19 -4 -5 -2 -9 4 -9 5 0 24 -15
41 -32 27 -29 31 -38 26 -73 -2 -22 -9 -41 -14 -43 -5 -1 -18 -9 -28 -17 -18
-13 -16 -14 19 -15 36 0 37 -1 37 -35 0 -19 -4 -35 -9 -35 -5 0 -13 -9 -16
-20 -4 -13 -19 -23 -37 -27 -29 -6 -30 -7 -13 -20 18 -12 18 -13 -3 -13 -12 0
-22 -5 -22 -10 0 -21 -236 20 -341 59 -74 28 -147 77 -170 115 -37 60 -19 119
53 178 42 34 275 158 297 158 6 0 52 17 102 39 54 23 99 36 111 33 21 -5 21
-5 -1 -24z"/>
<path d="M5065 6600 c-98 -14 -163 -36 -249 -86 -90 -52 -116 -72 -116 -89 0
-6 -10 -17 -22 -24 -22 -12 -76 -76 -127 -150 -29 -43 -111 -215 -111 -233 0
-7 22 12 50 43 49 56 151 131 222 165 29 14 35 20 27 31 -14 17 7 73 27 73 8
0 14 5 14 11 0 14 25 39 39 39 6 0 11 5 11 11 0 5 5 7 11 3 6 -3 14 -1 18 5
23 36 264 81 314 58 10 -5 17 -4 17 3 0 12 47 14 54 2 3 -5 19 -8 36 -7 16 1
30 -3 30 -9 0 -6 7 -2 15 8 13 17 15 18 15 3 0 -9 6 -18 13 -18 51 -6 73 -4
79 5 5 7 8 5 8 -5 0 -11 12 -19 34 -23 19 -4 37 -13 40 -21 3 -8 12 -12 20 -9
8 3 23 -3 33 -13 10 -10 29 -18 43 -18 29 0 60 -26 60 -51 0 -13 3 -14 14 -5
21 17 68 -3 59 -25 -5 -13 -2 -16 9 -12 15 6 42 -16 45 -37 1 -5 12 -12 25
-16 17 -4 22 -11 20 -28 -2 -15 0 -21 7 -17 6 4 11 3 11 -3 0 -5 3 -16 6 -24
3 -8 -2 -17 -12 -21 -22 -8 -45 22 -39 51 4 17 1 20 -15 16 -14 -4 -20 0 -20
12 0 11 -5 15 -15 11 -8 -3 -15 -1 -15 4 0 6 -9 19 -20 30 -11 11 -20 17 -20
13 0 -4 -5 -2 -12 5 -7 7 -18 12 -26 12 -17 0 -42 24 -42 41 0 8 -4 8 -13 1
-9 -8 -19 -6 -37 8 -13 10 -30 16 -37 13 -7 -3 -13 2 -13 11 0 11 -9 16 -27
16 -45 0 -73 11 -73 29 0 11 -3 13 -8 4 -9 -14 -82 -9 -92 6 -3 4 -12 8 -20 9
-8 0 -37 3 -65 6 -92 10 -267 5 -277 -8 -3 -5 -14 -11 -23 -12 -26 -4 -129
-57 -138 -71 -4 -7 -15 -13 -22 -13 -8 0 -15 -6 -15 -14 0 -8 -6 -16 -12 -19
-10 -3 -10 -8 -2 -16 8 -9 18 -9 39 -1 15 6 48 12 73 15 42 4 67 20 56 36 -7
13 15 60 26 54 5 -3 10 -22 10 -41 l0 -35 48 3 c46 3 47 3 50 40 2 27 9 39 23
43 27 9 29 5 20 -38 -9 -36 -8 -37 19 -37 15 0 41 -3 58 -6 30 -6 31 -5 34 32
2 29 8 40 22 42 23 5 38 -16 32 -43 -9 -37 2 -44 94 -62 22 -4 25 -1 26 27 2
43 21 61 39 36 8 -10 12 -23 9 -27 -3 -5 -2 -15 3 -21 4 -7 8 -19 8 -26 0 -11
92 -52 116 -52 4 0 5 18 2 40 -5 34 -3 40 13 40 11 0 24 -4 30 -8 12 -7 11
-52 0 -71 -4 -5 4 -12 16 -16 47 -13 108 -40 108 -47 0 -5 6 -8 13 -8 6 0 23
-6 37 -14 14 -7 50 -26 80 -42 93 -50 107 -60 194 -136 86 -76 136 -128 136
-143 0 -8 7 -15 15 -15 8 0 19 -16 25 -40 6 -22 16 -40 21 -40 7 0 8 7 4 18
-4 9 -10 31 -13 47 -3 17 -11 39 -18 51 -8 11 -12 23 -9 26 3 3 -8 29 -24 59
-16 30 -44 83 -62 119 -19 36 -39 70 -44 75 -17 15 -65 83 -65 90 0 15 -116
135 -165 171 -22 16 -44 32 -50 37 -36 27 -94 61 -120 70 -16 5 -41 17 -55 26
-51 34 -210 90 -295 105 -60 11 -212 14 -270 6z"/>
<path d="M10612 4894 c-14 -11 -15 -18 -4 -65 7 -30 19 -85 26 -124 15 -78 35
-137 45 -133 3 2 27 17 54 33 43 27 47 33 43 60 -6 38 -30 106 -48 134 -11 20
-11 24 6 37 50 37 109 6 149 -80 22 -45 30 -53 46 -49 29 7 27 18 -17 104
l-39 74 -61 3 c-53 3 -62 0 -72 -18 -14 -27 -28 -25 -36 4 -4 18 -14 25 -41
28 -19 2 -42 -1 -51 -8z"/>
<path d="M11080 4691 c0 -5 -14 -18 -31 -29 -25 -16 -36 -17 -59 -9 -23 9 -33
7 -55 -9 -39 -28 -112 -69 -177 -100 -62 -29 -73 -50 -44 -89 14 -19 15 -19
33 -2 11 9 25 17 31 17 7 0 17 9 24 20 7 11 17 20 21 20 5 0 29 18 55 39 66
55 116 81 142 74 16 -4 28 1 42 18 30 39 40 59 28 59 -5 0 -10 -4 -10 -9z"/>
</g>
</svg>
