<?xml version="1.0" ?>
<!DOCTYPE svg  PUBLIC '-//W3C//DTD SVG 1.1//EN'  'http://www.w3.org/Graphics/SVG/1.1/DTD/svg11.dtd'>
<!-- Uploaded to: SVG Repo, www.svgrepo.com, Generator: SVG Repo Mixer Tools -->
<svg width="800px" height="800px" viewBox="0 0 512 512" stroke-miterlimit="10" style="fill-rule:nonzero;clip-rule:evenodd;stroke-linecap:round;stroke-linejoin:round;" version="1.1" xml:space="preserve" xmlns="http://www.w3.org/2000/svg" xmlns:vectornator="http://vectornator.io" xmlns:xlink="http://www.w3.org/1999/xlink">
<defs/>
<g id="Layer-2" xmlns:vectornator="http://vectornator.io">
<path d="M183.25 176.25C181.276 176.251 179.375 176.345 177.531 176.531C96.1273 179.563 31 246.355 31 328.5C31 332.496 34.2536 335.75 38.25 335.75L183.25 335.75L473.75 335.75C477.746 335.75 481 332.496 481 328.5C481 321.976 476.333 317.302 468.625 313.562C462.686 310.681 454.428 308.151 444.25 306.062C434.32 304.025 422.636 302.394 409.812 301.281C396.692 300.142 382.561 299.562 368.031 299.562C355.856 299.562 344.098 300.072 332.844 300.875C320.177 231.846 261.029 179.229 189 176.531C187.159 176.345 185.255 176.251 183.281 176.25C183.271 176.25 183.261 176.25 183.25 176.25ZM176 191.281L176 321.281L118 321.281C117.995 319.608 118.008 318.543 118 316.188C117.953 301.632 117.953 296.202 118.094 289.469C118.586 265.813 120.874 251.17 127.062 236.125C131.837 224.516 142.614 211.647 155.531 202.031C164.315 195.492 169.562 192.423 176 191.281ZM190.469 191.281C196.92 192.419 202.171 195.482 210.969 202.031C223.886 211.647 234.663 224.516 239.438 236.125C245.626 251.17 247.945 265.813 248.438 289.469C248.578 296.202 248.547 301.632 248.5 316.188C248.492 318.543 248.505 319.608 248.5 321.281L190.469 321.281L190.469 191.281ZM136.75 198.969C126.476 208.599 118.174 219.793 113.719 230.625C106.739 247.596 104.152 263.869 103.625 289.156C103.481 296.05 103.484 301.57 103.531 316.25C103.539 318.583 103.527 319.624 103.531 321.281L45.8438 321.281C48.782 264.71 85.7501 217.287 136.75 198.969ZM229.812 198.969C280.777 217.302 317.689 264.73 320.625 321.281L262.969 321.281C262.973 319.624 262.961 318.583 262.969 316.25C263.016 301.57 263.019 296.05 262.875 289.156C262.348 263.869 259.793 247.596 252.812 230.625C248.36 219.8 240.078 208.596 229.812 198.969ZM368.031 314.031C382.15 314.031 395.865 314.585 408.562 315.688C420.858 316.755 431.997 318.332 441.344 320.25C442.903 320.57 444.057 320.945 445.5 321.281L335.094 321.281C334.999 319.258 334.955 317.221 334.781 315.219C345.424 314.482 356.52 314.031 368.031 314.031Z" fill="#000000" fill-rule="evenodd" opacity="1" stroke="none" xmlns:vectornator="http://vectornator.io"/>
</g>
</svg>